<svg width="121" height="120" viewBox="0 0 121 120" fill="none" xmlns="http://www.w3.org/2000/svg">
<rect x="1" width="120" height="120" fill="white"/>
<g filter="url(#filter0_i_182_112)">
<rect x="40" y="80.0001" width="40" height="40" fill="#F0F4F9"/>
</g>
<line y1="39.4999" x2="120" y2="39.4999" stroke="#336699"/>
<line y1="79.4999" x2="120" y2="79.4999" stroke="#336699"/>
<line x1="39.4961" y1="120" x2="39.4961" stroke="#336699"/>
<line x1="79.5273" y1="120" x2="79.5273" stroke="#336699"/>
<path d="M18.8665 69.2386C17.5938 69.2386 16.4602 69.0199 15.4659 68.5824C14.4773 68.1392 13.696 67.5312 13.1222 66.7585C12.554 65.9801 12.2614 65.0824 12.2443 64.0653H15.9602C15.983 64.4915 16.1222 64.8665 16.3778 65.1903C16.6392 65.5085 16.9858 65.7557 17.4176 65.9318C17.8494 66.108 18.3352 66.196 18.875 66.196C19.4375 66.196 19.9347 66.0966 20.3665 65.8977C20.7983 65.6989 21.1364 65.4233 21.3807 65.071C21.625 64.7187 21.7472 64.3125 21.7472 63.8523C21.7472 63.3864 21.6165 62.9744 21.3551 62.6165C21.0994 62.2528 20.7301 61.9687 20.2472 61.7642C19.7699 61.5597 19.2017 61.4574 18.5426 61.4574H16.9148V58.7472H18.5426C19.0994 58.7472 19.5909 58.6506 20.017 58.4574C20.4489 58.2642 20.7841 57.9972 21.0227 57.6562C21.2614 57.3097 21.3807 56.9062 21.3807 56.446C21.3807 56.0085 21.2756 55.625 21.0653 55.2955C20.8608 54.9602 20.571 54.6989 20.196 54.5114C19.8267 54.3239 19.3949 54.2301 18.9006 54.2301C18.4006 54.2301 17.9432 54.321 17.5284 54.5028C17.1136 54.679 16.7812 54.9318 16.5312 55.2614C16.2812 55.5909 16.1477 55.9773 16.1307 56.4205H12.5938C12.6108 55.4148 12.8977 54.5284 13.4545 53.7614C14.0114 52.9943 14.7614 52.3949 15.7045 51.9631C16.6534 51.5256 17.7244 51.3068 18.9176 51.3068C20.1222 51.3068 21.1761 51.5256 22.0795 51.9631C22.983 52.4006 23.6847 52.9915 24.1847 53.7358C24.6903 54.4744 24.9403 55.304 24.9347 56.2244C24.9403 57.2017 24.6364 58.017 24.0227 58.6705C23.4148 59.3239 22.6222 59.7386 21.6449 59.9148V60.0511C22.929 60.2159 23.9063 60.6619 24.5767 61.3892C25.2528 62.1108 25.5881 63.0142 25.5824 64.0994C25.5881 65.0938 25.3011 65.9773 24.7216 66.75C24.1477 67.5227 23.3551 68.1307 22.3438 68.5739C21.3324 69.017 20.1733 69.2386 18.8665 69.2386Z" fill="#777777"/>
<path d="M62.0085 11.5455V29H58.3182V15.0483H58.2159L54.2188 17.554V14.2812L58.5398 11.5455H62.0085Z" fill="#777777"/>
<path d="M100.79 29.2386C99.5852 29.2386 98.5114 29.017 97.5682 28.5739C96.6307 28.1307 95.8864 27.5199 95.3352 26.7415C94.7841 25.9631 94.4972 25.071 94.4744 24.0653H98.054C98.0938 24.7415 98.3778 25.2898 98.9062 25.7102C99.4347 26.1307 100.062 26.3409 100.79 26.3409C101.369 26.3409 101.881 26.2131 102.324 25.9574C102.773 25.696 103.122 25.3352 103.372 24.875C103.628 24.4091 103.756 23.875 103.756 23.2727C103.756 22.6591 103.625 22.1193 103.364 21.6534C103.108 21.1875 102.753 20.8239 102.298 20.5625C101.844 20.3011 101.324 20.1676 100.739 20.1619C100.227 20.1619 99.7301 20.267 99.2472 20.4773C98.7699 20.6875 98.3977 20.9744 98.1307 21.3381L94.8494 20.75L95.6761 11.5455H106.347V14.5625H98.7188L98.267 18.9347H98.3693C98.6761 18.5028 99.1392 18.1449 99.7585 17.8608C100.378 17.5767 101.071 17.4347 101.838 17.4347C102.889 17.4347 103.827 17.6818 104.651 18.1761C105.474 18.6705 106.125 19.3494 106.602 20.2131C107.08 21.071 107.315 22.0597 107.31 23.179C107.315 24.3551 107.043 25.4006 106.491 26.3153C105.946 27.2244 105.182 27.9403 104.199 28.4631C103.222 28.9801 102.085 29.2386 100.79 29.2386Z" fill="#777777"/>
<path d="M59.1136 69.2386C58.2159 69.233 57.3494 69.0824 56.5142 68.7869C55.6847 68.4915 54.9403 68.0114 54.2812 67.3466C53.6222 66.6818 53.0994 65.8011 52.7131 64.7045C52.3324 63.608 52.142 62.2614 52.142 60.6648C52.1477 59.1989 52.3153 57.8892 52.6449 56.7358C52.9801 55.5767 53.4574 54.5937 54.0767 53.7869C54.7017 52.9801 55.4489 52.3665 56.3182 51.946C57.1875 51.5199 58.1619 51.3068 59.2415 51.3068C60.4063 51.3068 61.4347 51.5341 62.3267 51.9886C63.2188 52.4375 63.9347 53.0483 64.4744 53.821C65.0199 54.5938 65.3494 55.4602 65.4631 56.4205H61.8239C61.6818 55.8125 61.3835 55.3352 60.929 54.9886C60.4744 54.642 59.9119 54.4688 59.2415 54.4688C58.1051 54.4688 57.2415 54.9631 56.6506 55.9517C56.0653 56.9403 55.767 58.2841 55.7557 59.983H55.875C56.1364 59.4659 56.4886 59.0256 56.9318 58.6619C57.3807 58.2926 57.8892 58.0114 58.4574 57.8182C59.0312 57.6193 59.6364 57.5199 60.2727 57.5199C61.3068 57.5199 62.2273 57.7642 63.0341 58.2528C63.8409 58.7358 64.4773 59.4006 64.9432 60.2472C65.4091 61.0937 65.642 62.0625 65.642 63.1534C65.642 64.3352 65.3665 65.3864 64.8153 66.3068C64.2699 67.2273 63.5057 67.9489 62.5227 68.4716C61.5455 68.9886 60.4091 69.2443 59.1136 69.2386ZM59.0966 66.3409C59.6648 66.3409 60.1733 66.2045 60.6222 65.9318C61.071 65.6591 61.4233 65.2898 61.679 64.8239C61.9347 64.358 62.0625 63.8352 62.0625 63.2557C62.0625 62.6761 61.9347 62.1562 61.679 61.696C61.429 61.2358 61.0824 60.8693 60.6392 60.5966C60.196 60.3239 59.6903 60.1875 59.1222 60.1875C58.696 60.1875 58.3011 60.267 57.9375 60.4261C57.5795 60.5852 57.2642 60.8068 56.9915 61.0909C56.7244 61.375 56.5142 61.7045 56.3608 62.0795C56.2074 62.4489 56.1307 62.8437 56.1307 63.2642C56.1307 63.8267 56.2585 64.3409 56.5142 64.8068C56.7756 65.2727 57.1278 65.6449 57.571 65.9233C58.0199 66.2017 58.5284 66.3409 59.0966 66.3409Z" fill="#777777"/>
<path d="M52.3977 104.421V102.682L60.0682 90.5455H61.3295V93.2387H60.4773L54.6818 102.409V102.546H65.0114V104.421H52.3977ZM60.6136 108V103.892V103.082V90.5455H62.625V108H60.6136Z" fill="#336699"/>
<path d="M13.8068 29.0001V27.466L19.5682 21.1592C20.2443 20.4205 20.8011 19.7785 21.2386 19.233C21.6761 18.6819 22 18.1648 22.2102 17.6819C22.4261 17.1932 22.5341 16.6819 22.5341 16.1478C22.5341 15.5342 22.3864 15.0029 22.0909 14.554C21.8011 14.1052 21.4034 13.7586 20.8977 13.5143C20.392 13.2699 19.8239 13.1478 19.1932 13.1478C18.5227 13.1478 17.9375 13.287 17.4375 13.5654C16.9432 13.8381 16.5597 14.2217 16.2869 14.716C16.0199 15.2103 15.8864 15.7898 15.8864 16.4546H13.875C13.875 15.4319 14.1108 14.5342 14.5824 13.7614C15.054 12.9887 15.696 12.3864 16.5085 11.9546C17.3267 11.5228 18.2443 11.3069 19.2614 11.3069C20.2841 11.3069 21.1903 11.5228 21.9801 11.9546C22.7699 12.3864 23.3892 12.9688 23.8381 13.7018C24.2869 14.4347 24.5114 15.2501 24.5114 16.1478C24.5114 16.7898 24.3949 17.4177 24.1619 18.0313C23.9347 18.6393 23.5369 19.3182 22.9688 20.0682C22.4062 20.8126 21.625 21.7217 20.625 22.7955L16.7045 26.9887V27.1251H24.8182V29.0001H13.8068Z" fill="#336699"/>
<path d="M100.398 69.2386C99.2273 69.2386 98.1932 69.0312 97.2955 68.6165C96.4034 68.196 95.7074 67.6193 95.2074 66.8864C94.7074 66.1477 94.4602 65.3068 94.4659 64.3636C94.4602 63.625 94.6051 62.9432 94.9006 62.3182C95.196 61.6875 95.5994 61.1619 96.1108 60.7415C96.6278 60.3153 97.2045 60.0455 97.8409 59.9318V59.8295C97.0057 59.6136 96.3409 59.1449 95.8466 58.4233C95.3523 57.696 95.108 56.8693 95.1136 55.9432C95.108 55.0568 95.3324 54.2642 95.7869 53.5653C96.2415 52.8665 96.8665 52.3153 97.6619 51.9119C98.4631 51.5085 99.375 51.3068 100.398 51.3068C101.409 51.3068 102.313 51.5085 103.108 51.9119C103.903 52.3153 104.528 52.8665 104.983 53.5653C105.443 54.2642 105.676 55.0568 105.682 55.9432C105.676 56.8693 105.423 57.696 104.923 58.4233C104.429 59.1449 103.773 59.6136 102.955 59.8295V59.9318C103.585 60.0455 104.153 60.3153 104.659 60.7415C105.165 61.1619 105.568 61.6875 105.869 62.3182C106.17 62.9432 106.324 63.625 106.33 64.3636C106.324 65.3068 106.068 66.1477 105.562 66.8864C105.062 67.6193 104.366 68.196 103.474 68.6165C102.588 69.0312 101.563 69.2386 100.398 69.2386ZM100.398 67.3636C101.188 67.3636 101.869 67.2358 102.443 66.9801C103.017 66.7244 103.46 66.3636 103.773 65.8977C104.085 65.4318 104.244 64.8864 104.25 64.2614C104.244 63.6023 104.074 63.0199 103.739 62.5142C103.403 62.0085 102.946 61.6108 102.366 61.321C101.793 61.0312 101.136 60.8864 100.398 60.8864C99.6534 60.8864 98.9886 61.0312 98.4034 61.321C97.8239 61.6108 97.3665 62.0085 97.0312 62.5142C96.7017 63.0199 96.5398 63.6023 96.5455 64.2614C96.5398 64.8864 96.6903 65.4318 96.9972 65.8977C97.3097 66.3636 97.7557 66.7244 98.3352 66.9801C98.9148 67.2358 99.6023 67.3636 100.398 67.3636ZM100.398 59.0795C101.023 59.0795 101.577 58.9545 102.06 58.7045C102.548 58.4545 102.932 58.1051 103.21 57.6562C103.489 57.2074 103.631 56.6818 103.636 56.0795C103.631 55.4886 103.491 54.9744 103.219 54.5369C102.946 54.0937 102.568 53.7528 102.085 53.5142C101.602 53.2699 101.04 53.1477 100.398 53.1477C99.7443 53.1477 99.1733 53.2699 98.6847 53.5142C98.196 53.7528 97.8182 54.0937 97.5511 54.5369C97.2841 54.9744 97.1534 55.4886 97.1591 56.0795C97.1534 56.6818 97.2869 57.2074 97.5597 57.6562C97.8381 58.1051 98.2216 58.4545 98.7102 58.7045C99.1989 58.9545 99.7614 59.0795 100.398 59.0795Z" fill="#336699"/>
<defs>
<filter id="filter0_i_182_112" x="40" y="80.0001" width="40" height="40" filterUnits="userSpaceOnUse" color-interpolation-filters="sRGB">
<feFlood flood-opacity="0" result="BackgroundImageFix"/>
<feBlend mode="normal" in="SourceGraphic" in2="BackgroundImageFix" result="shape"/>
<feColorMatrix in="SourceAlpha" type="matrix" values="0 0 0 0 0 0 0 0 0 0 0 0 0 0 0 0 0 0 127 0" result="hardAlpha"/>
<feOffset/>
<feGaussianBlur stdDeviation="5.5"/>
<feComposite in2="hardAlpha" operator="arithmetic" k2="-1" k3="1"/>
<feColorMatrix type="matrix" values="0 0 0 0 0.404281 0 0 0 0 0.785541 0 0 0 0 1 0 0 0 1 0"/>
<feBlend mode="normal" in2="shape" result="effect1_innerShadow_182_112"/>
</filter>
</defs>
</svg>
